<mxfile host="app.diagrams.net" agent="Mozilla/5.0 (Windows NT 10.0; Win64; x64) AppleWebKit/537.36 (KHTML, like Gecko) Chrome/135.0.0.0 Safari/537.36" version="27.1.1">
  <diagram name="第 1 页" id="BwcjlzcZ4dpGd0syeMED">
    <mxGraphModel dx="1352" dy="740" grid="1" gridSize="10" guides="1" tooltips="1" connect="1" arrows="1" fold="1" page="1" pageScale="1" pageWidth="827" pageHeight="1169" math="0" shadow="0">
      <root>
        <mxCell id="0" />
        <mxCell id="1" parent="0" />
        <mxCell id="d85L3eKw6_MX9-1PcmMq-64" value="&lt;font style=&quot;font-size: 14px;&quot;&gt;&amp;nbsp; &amp;nbsp; &amp;nbsp; 文件交互&amp;nbsp; &amp;nbsp; &amp;nbsp; &amp;nbsp; &amp;nbsp; &amp;nbsp; &amp;nbsp; &amp;nbsp; &amp;nbsp; &amp;nbsp; &amp;nbsp; &amp;nbsp; &amp;nbsp;&amp;nbsp;&lt;/font&gt;&lt;span style=&quot;font-size: 14px;&quot;&gt;文件交互&lt;/span&gt;" style="rounded=0;whiteSpace=wrap;html=1;fillColor=#f5f5f5;gradientColor=#b3b3b3;strokeColor=#666666;" vertex="1" parent="1">
          <mxGeometry x="180" y="178" width="520" height="20" as="geometry" />
        </mxCell>
        <mxCell id="d85L3eKw6_MX9-1PcmMq-33" value="" style="verticalLabelPosition=bottom;verticalAlign=top;html=1;shape=mxgraph.basic.patternFillRect;fillStyle=diagRev;step=5;fillStrokeWidth=0.2;fillStrokeColor=#dddddd;fillColor=#fff2cc;strokeColor=#d6b656;fontSize=16;" vertex="1" parent="1">
          <mxGeometry x="220" y="440" width="470" height="145" as="geometry" />
        </mxCell>
        <mxCell id="d85L3eKw6_MX9-1PcmMq-32" value="" style="verticalLabelPosition=bottom;verticalAlign=top;html=1;shape=mxgraph.basic.patternFillRect;fillStyle=diagRev;step=5;fillStrokeWidth=0.2;fillStrokeColor=#dddddd;fillColor=#fff2cc;strokeColor=#d6b656;fontSize=16;" vertex="1" parent="1">
          <mxGeometry x="220" y="232" width="470" height="150" as="geometry" />
        </mxCell>
        <mxCell id="d85L3eKw6_MX9-1PcmMq-6" value="登录管理" style="rounded=0;whiteSpace=wrap;html=1;fillColor=#dae8fc;strokeColor=#6c8ebf;fontSize=16;" vertex="1" parent="1">
          <mxGeometry x="240" y="262" width="120" height="40" as="geometry" />
        </mxCell>
        <mxCell id="d85L3eKw6_MX9-1PcmMq-8" value="账号和权限管理" style="rounded=0;whiteSpace=wrap;html=1;fillColor=#dae8fc;strokeColor=#6c8ebf;fontSize=16;" vertex="1" parent="1">
          <mxGeometry x="404" y="262" width="120" height="40" as="geometry" />
        </mxCell>
        <mxCell id="d85L3eKw6_MX9-1PcmMq-17" value="配置管理" style="rounded=0;whiteSpace=wrap;html=1;fillColor=#dae8fc;strokeColor=#6c8ebf;fontSize=16;" vertex="1" parent="1">
          <mxGeometry x="560" y="262" width="120" height="40" as="geometry" />
        </mxCell>
        <mxCell id="d85L3eKw6_MX9-1PcmMq-19" value="日志管理" style="rounded=0;whiteSpace=wrap;html=1;fillColor=#dae8fc;strokeColor=#6c8ebf;fontSize=16;" vertex="1" parent="1">
          <mxGeometry x="240" y="332" width="120" height="40" as="geometry" />
        </mxCell>
        <mxCell id="d85L3eKw6_MX9-1PcmMq-21" value="上下场管理" style="rounded=0;whiteSpace=wrap;html=1;fillColor=#dae8fc;strokeColor=#6c8ebf;fontSize=16;" vertex="1" parent="1">
          <mxGeometry x="404" y="332" width="120" height="40" as="geometry" />
        </mxCell>
        <mxCell id="d85L3eKw6_MX9-1PcmMq-22" value="系统设置管理" style="rounded=0;whiteSpace=wrap;html=1;fillColor=#dae8fc;strokeColor=#6c8ebf;fontSize=16;" vertex="1" parent="1">
          <mxGeometry x="560" y="332" width="120" height="40" as="geometry" />
        </mxCell>
        <mxCell id="d85L3eKw6_MX9-1PcmMq-23" value="报撤单管理" style="rounded=0;whiteSpace=wrap;html=1;fillColor=#f8cecc;strokeColor=#b85450;fontSize=16;" vertex="1" parent="1">
          <mxGeometry x="240" y="465" width="120" height="40" as="geometry" />
        </mxCell>
        <mxCell id="d85L3eKw6_MX9-1PcmMq-25" value="资金管理" style="rounded=0;whiteSpace=wrap;html=1;fillColor=#f8cecc;strokeColor=#b85450;fontSize=16;" vertex="1" parent="1">
          <mxGeometry x="404" y="465" width="120" height="40" as="geometry" />
        </mxCell>
        <mxCell id="d85L3eKw6_MX9-1PcmMq-26" value="持仓管理" style="rounded=0;whiteSpace=wrap;html=1;fillColor=#f8cecc;strokeColor=#b85450;fontSize=16;" vertex="1" parent="1">
          <mxGeometry x="560" y="465" width="120" height="40" as="geometry" />
        </mxCell>
        <mxCell id="d85L3eKw6_MX9-1PcmMq-27" value="风控检测" style="rounded=0;whiteSpace=wrap;html=1;fillColor=#f8cecc;strokeColor=#b85450;fontSize=16;" vertex="1" parent="1">
          <mxGeometry x="240" y="535" width="120" height="40" as="geometry" />
        </mxCell>
        <mxCell id="d85L3eKw6_MX9-1PcmMq-29" value="合法性检测" style="rounded=0;whiteSpace=wrap;html=1;fillColor=#f8cecc;strokeColor=#b85450;fontSize=16;" vertex="1" parent="1">
          <mxGeometry x="404" y="535" width="120" height="40" as="geometry" />
        </mxCell>
        <mxCell id="d85L3eKw6_MX9-1PcmMq-30" value="交易通道管理" style="rounded=0;whiteSpace=wrap;html=1;fillColor=#f8cecc;strokeColor=#b85450;fontSize=16;" vertex="1" parent="1">
          <mxGeometry x="560" y="535" width="120" height="40" as="geometry" />
        </mxCell>
        <mxCell id="d85L3eKw6_MX9-1PcmMq-34" value="" style="shape=doubleArrow;direction=south;whiteSpace=wrap;html=1;fillColor=#60a917;strokeColor=#2D7600;fontColor=#ffffff;fontSize=16;" vertex="1" parent="1">
          <mxGeometry x="360" y="362.5" width="40" height="90" as="geometry" />
        </mxCell>
        <mxCell id="d85L3eKw6_MX9-1PcmMq-36" value="" style="shape=doubleArrow;direction=south;whiteSpace=wrap;html=1;fillColor=#60a917;fontColor=#ffffff;strokeColor=#2D7600;fontSize=16;" vertex="1" parent="1">
          <mxGeometry x="520" y="360" width="40" height="90" as="geometry" />
        </mxCell>
        <mxCell id="d85L3eKw6_MX9-1PcmMq-38" value="数据同步" style="text;html=1;align=center;verticalAlign=middle;resizable=0;points=[];autosize=1;strokeColor=none;fillColor=none;fontSize=16;" vertex="1" parent="1">
          <mxGeometry x="295" y="391" width="90" height="30" as="geometry" />
        </mxCell>
        <mxCell id="d85L3eKw6_MX9-1PcmMq-39" value="SoftCore" style="rounded=0;whiteSpace=wrap;html=1;fillColor=#6a00ff;fontColor=#ffffff;strokeColor=#3700CC;fontSize=16;" vertex="1" parent="1">
          <mxGeometry x="610" y="232" width="80" height="20" as="geometry" />
        </mxCell>
        <mxCell id="d85L3eKw6_MX9-1PcmMq-40" value="HardCore" style="rounded=0;whiteSpace=wrap;html=1;fillColor=#6a00ff;fontColor=#ffffff;strokeColor=#3700CC;fontSize=16;" vertex="1" parent="1">
          <mxGeometry x="610" y="440" width="80" height="20" as="geometry" />
        </mxCell>
        <mxCell id="d85L3eKw6_MX9-1PcmMq-42" value="系统整体功能" style="swimlane;horizontal=0;whiteSpace=wrap;html=1;fillColor=#a20025;fontColor=#ffffff;strokeColor=#6F0000;strokeWidth=2;fontSize=16;" vertex="1" parent="1">
          <mxGeometry x="180" y="217" width="520" height="383" as="geometry" />
        </mxCell>
        <mxCell id="d85L3eKw6_MX9-1PcmMq-37" value="数据同步" style="text;html=1;align=center;verticalAlign=middle;resizable=0;points=[];autosize=1;strokeColor=none;fillColor=none;fontSize=16;" vertex="1" parent="d85L3eKw6_MX9-1PcmMq-42">
          <mxGeometry x="355" y="176.5" width="90" height="30" as="geometry" />
        </mxCell>
        <mxCell id="d85L3eKw6_MX9-1PcmMq-45" value="&lt;font style=&quot;font-size: 20px;&quot;&gt;沪深交易所&lt;/font&gt;" style="rounded=1;whiteSpace=wrap;html=1;fillColor=#a20025;fontColor=#ffffff;strokeColor=#6F0000;" vertex="1" parent="1">
          <mxGeometry x="777" y="296" width="70" height="188" as="geometry" />
        </mxCell>
        <mxCell id="d85L3eKw6_MX9-1PcmMq-46" value="客户" style="rounded=1;whiteSpace=wrap;html=1;fillColor=#bac8d3;strokeColor=#23445d;" vertex="1" parent="1">
          <mxGeometry x="25" y="324" width="80" height="151.5" as="geometry" />
        </mxCell>
        <mxCell id="d85L3eKw6_MX9-1PcmMq-47" value="资券调度系统" style="rounded=1;whiteSpace=wrap;html=1;fontSize=17;fillColor=#e1d5e7;strokeColor=#9673a6;" vertex="1" parent="1">
          <mxGeometry x="294" y="650" width="120" height="60" as="geometry" />
        </mxCell>
        <mxCell id="d85L3eKw6_MX9-1PcmMq-48" value="公司风控系统" style="rounded=1;whiteSpace=wrap;html=1;fontSize=17;fillColor=#e1d5e7;strokeColor=#9673a6;" vertex="1" parent="1">
          <mxGeometry x="520" y="650" width="120" height="60" as="geometry" />
        </mxCell>
        <mxCell id="d85L3eKw6_MX9-1PcmMq-50" value="主席上场文件" style="strokeWidth=2;html=1;shape=mxgraph.flowchart.document2;whiteSpace=wrap;size=0.25;fontSize=14;fillColor=#e3c800;fontColor=#000000;strokeColor=#B09500;" vertex="1" parent="1">
          <mxGeometry x="215" y="91" width="100" height="57" as="geometry" />
        </mxCell>
        <mxCell id="d85L3eKw6_MX9-1PcmMq-53" value="交易所静态文件" style="strokeWidth=2;html=1;shape=mxgraph.flowchart.document2;whiteSpace=wrap;size=0.25;fontSize=14;fillColor=#e3c800;fontColor=#000000;strokeColor=#B09500;" vertex="1" parent="1">
          <mxGeometry x="395" y="91" width="100" height="57" as="geometry" />
        </mxCell>
        <mxCell id="d85L3eKw6_MX9-1PcmMq-55" value="主席下场文件" style="strokeWidth=2;html=1;shape=mxgraph.flowchart.document2;whiteSpace=wrap;size=0.25;fontSize=14;fillColor=#e3c800;fontColor=#000000;strokeColor=#B09500;" vertex="1" parent="1">
          <mxGeometry x="561" y="91" width="100" height="57" as="geometry" />
        </mxCell>
        <mxCell id="d85L3eKw6_MX9-1PcmMq-57" value="文件交互" style="swimlane;horizontal=0;whiteSpace=wrap;html=1;fillColor=#fa6800;fontColor=#000000;strokeColor=#C73500;fontSize=14;strokeWidth=2;" vertex="1" parent="1">
          <mxGeometry x="180" y="80" width="520" height="80" as="geometry" />
        </mxCell>
        <mxCell id="d85L3eKw6_MX9-1PcmMq-61" value="" style="html=1;shadow=0;dashed=0;align=center;verticalAlign=middle;shape=mxgraph.arrows2.arrow;dy=0.6;dx=40;direction=north;notch=0;fillColor=#d5e8d4;gradientColor=#97d077;strokeColor=#82b366;" vertex="1" parent="1">
          <mxGeometry x="585" y="139" width="25" height="100" as="geometry" />
        </mxCell>
        <mxCell id="d85L3eKw6_MX9-1PcmMq-62" value="" style="html=1;shadow=0;dashed=0;align=center;verticalAlign=middle;shape=mxgraph.arrows2.arrow;dy=0.6;dx=40;direction=south;notch=0;fillColor=#d5e8d4;gradientColor=#97d077;strokeColor=#82b366;" vertex="1" parent="1">
          <mxGeometry x="430" y="140" width="30" height="112" as="geometry" />
        </mxCell>
        <mxCell id="d85L3eKw6_MX9-1PcmMq-63" value="" style="html=1;shadow=0;dashed=0;align=center;verticalAlign=middle;shape=mxgraph.arrows2.arrow;dy=0.6;dx=40;direction=south;notch=0;fillColor=#d5e8d4;gradientColor=#97d077;strokeColor=#82b366;" vertex="1" parent="1">
          <mxGeometry x="270" y="132" width="30" height="120" as="geometry" />
        </mxCell>
        <mxCell id="d85L3eKw6_MX9-1PcmMq-65" value="&lt;div&gt;&lt;br&gt;&lt;/div&gt;&lt;div&gt;&lt;br&gt;&lt;/div&gt;&lt;div&gt;交易&lt;/div&gt;客户" style="shape=actor;whiteSpace=wrap;html=1;fillColor=#bac8d3;strokeColor=#23445d;" vertex="1" parent="1">
          <mxGeometry x="45" y="354" width="40" height="80" as="geometry" />
        </mxCell>
        <mxCell id="d85L3eKw6_MX9-1PcmMq-67" value="" style="shape=doubleArrow;whiteSpace=wrap;html=1;fillColor=#fad9d5;strokeColor=#ae4132;" vertex="1" parent="1">
          <mxGeometry x="692" y="390" width="90" height="22.75" as="geometry" />
        </mxCell>
        <mxCell id="d85L3eKw6_MX9-1PcmMq-68" value="" style="shape=doubleArrow;whiteSpace=wrap;html=1;fillColor=#fad9d5;strokeColor=#ae4132;" vertex="1" parent="1">
          <mxGeometry x="90" y="382" width="90" height="30" as="geometry" />
        </mxCell>
        <mxCell id="d85L3eKw6_MX9-1PcmMq-69" value="" style="shape=doubleArrow;direction=south;whiteSpace=wrap;html=1;fillColor=#fad9d5;strokeColor=#ae4132;" vertex="1" parent="1">
          <mxGeometry x="330" y="590" width="46" height="70" as="geometry" />
        </mxCell>
        <mxCell id="d85L3eKw6_MX9-1PcmMq-70" value="" style="shape=doubleArrow;direction=south;whiteSpace=wrap;html=1;fillColor=#fad9d5;strokeColor=#ae4132;" vertex="1" parent="1">
          <mxGeometry x="560" y="580" width="40" height="80" as="geometry" />
        </mxCell>
        <mxCell id="d85L3eKw6_MX9-1PcmMq-71" value="委托&lt;div&gt;回报&lt;/div&gt;" style="text;html=1;align=center;verticalAlign=middle;resizable=0;points=[];autosize=1;strokeColor=none;fillColor=none;" vertex="1" parent="1">
          <mxGeometry x="105" y="393" width="50" height="40" as="geometry" />
        </mxCell>
        <mxCell id="d85L3eKw6_MX9-1PcmMq-72" value="报单" style="text;html=1;align=center;verticalAlign=middle;resizable=0;points=[];autosize=1;strokeColor=none;fillColor=none;" vertex="1" parent="1">
          <mxGeometry x="710" y="398" width="50" height="30" as="geometry" />
        </mxCell>
      </root>
    </mxGraphModel>
  </diagram>
</mxfile>
